<mxfile host="app.diagrams.net" modified="2023-12-31T11:31:30.858Z" agent="Mozilla/5.0 (X11; Linux x86_64) AppleWebKit/537.36 (KHTML, like Gecko) Chrome/120.0.0.0 Safari/537.36" etag="FFPANbxfmu2ahcPeDyuH" version="22.1.16" type="device">
  <diagram name="Page-1" id="e7e014a7-5840-1c2e-5031-d8a46d1fe8dd">
    <mxGraphModel dx="438" dy="796" grid="1" gridSize="10" guides="1" tooltips="1" connect="1" arrows="1" fold="1" page="1" pageScale="1" pageWidth="1169" pageHeight="826" background="none" math="0" shadow="0">
      <root>
        <mxCell id="0" />
        <mxCell id="1" parent="0" />
        <mxCell id="2" value="Farmer" style="swimlane;whiteSpace=wrap" parent="1" vertex="1">
          <mxGeometry x="164.5" y="128" width="280" height="570" as="geometry" />
        </mxCell>
        <mxCell id="5" value="" style="ellipse;shape=startState;fillColor=#000000;strokeColor=#FF0000;" parent="2" vertex="1">
          <mxGeometry x="100" y="40" width="30" height="30" as="geometry" />
        </mxCell>
        <mxCell id="6" value="" style="edgeStyle=elbowEdgeStyle;elbow=horizontal;verticalAlign=bottom;endArrow=open;endSize=8;strokeColor=#FF0000;endFill=1;rounded=0" parent="2" source="5" target="7" edge="1">
          <mxGeometry x="100" y="40" as="geometry">
            <mxPoint x="115" y="110" as="targetPoint" />
          </mxGeometry>
        </mxCell>
        <mxCell id="7" value="Harvest" style="strokeColor=#FF0000;" parent="2" vertex="1">
          <mxGeometry x="60" y="110" width="110" height="50" as="geometry" />
        </mxCell>
        <mxCell id="8" value="Process" style="strokeColor=#FF0000;" parent="2" vertex="1">
          <mxGeometry x="60" y="220" width="110" height="50" as="geometry" />
        </mxCell>
        <mxCell id="9" value="" style="endArrow=open;strokeColor=#FF0000;endFill=1;rounded=0" parent="2" source="7" target="8" edge="1">
          <mxGeometry relative="1" as="geometry" />
        </mxCell>
        <mxCell id="10" value="Pack" style="strokeColor=#FF0000;" parent="2" vertex="1">
          <mxGeometry x="60" y="325" width="110" height="50" as="geometry" />
        </mxCell>
        <mxCell id="11" value="" style="endArrow=open;strokeColor=#FF0000;endFill=1;rounded=0" parent="2" source="8" target="10" edge="1">
          <mxGeometry relative="1" as="geometry" />
        </mxCell>
        <mxCell id="HhktTSfvLPOtkTjDQFd3-47" value="Sell" style="strokeColor=#FF0000;" vertex="1" parent="2">
          <mxGeometry x="60" y="422" width="110" height="50" as="geometry" />
        </mxCell>
        <mxCell id="HhktTSfvLPOtkTjDQFd3-49" value="" style="endArrow=open;strokeColor=#FF0000;endFill=1;rounded=0" edge="1" parent="2">
          <mxGeometry relative="1" as="geometry">
            <mxPoint x="114.5" y="367" as="sourcePoint" />
            <mxPoint x="114.5" y="422" as="targetPoint" />
          </mxGeometry>
        </mxCell>
        <mxCell id="3" value="Distributor" style="swimlane;whiteSpace=wrap;direction=east;" parent="1" vertex="1">
          <mxGeometry x="444.5" y="128" width="275.5" height="572" as="geometry" />
        </mxCell>
        <mxCell id="14" value="" style="edgeStyle=elbowEdgeStyle;elbow=horizontal;verticalAlign=bottom;endArrow=open;endSize=8;strokeColor=#FF0000;endFill=1;rounded=0" parent="3" target="15" edge="1">
          <mxGeometry x="40" y="20" as="geometry">
            <mxPoint x="55" y="90" as="targetPoint" />
            <mxPoint x="75" y="70" as="sourcePoint" />
          </mxGeometry>
        </mxCell>
        <mxCell id="17" value="" style="endArrow=open;strokeColor=#FF0000;endFill=1;rounded=0" parent="3" target="16" edge="1">
          <mxGeometry relative="1" as="geometry">
            <mxPoint x="75" y="160" as="sourcePoint" />
          </mxGeometry>
        </mxCell>
        <mxCell id="19" value="" style="endArrow=open;strokeColor=#FF0000;endFill=1;rounded=0" parent="3" target="18" edge="1">
          <mxGeometry relative="1" as="geometry">
            <mxPoint x="75" y="270" as="sourcePoint" />
          </mxGeometry>
        </mxCell>
        <mxCell id="HhktTSfvLPOtkTjDQFd3-64" style="edgeStyle=orthogonalEdgeStyle;rounded=0;orthogonalLoop=1;jettySize=auto;html=1;strokeColor=#FF0000;" edge="1" parent="3" source="HhktTSfvLPOtkTjDQFd3-54">
          <mxGeometry relative="1" as="geometry">
            <mxPoint x="130.5" y="286" as="targetPoint" />
          </mxGeometry>
        </mxCell>
        <mxCell id="HhktTSfvLPOtkTjDQFd3-54" value="Buy" style="strokeColor=#FF0000;" vertex="1" parent="3">
          <mxGeometry x="75.5" y="104" width="110" height="50" as="geometry" />
        </mxCell>
        <mxCell id="HhktTSfvLPOtkTjDQFd3-65" value="Ship" style="strokeColor=#FF0000;" vertex="1" parent="3">
          <mxGeometry x="75.5" y="285" width="110" height="50" as="geometry" />
        </mxCell>
        <mxCell id="4" value="Retailer" style="swimlane;whiteSpace=wrap" parent="1" vertex="1">
          <mxGeometry x="720" y="130" width="280" height="568" as="geometry" />
        </mxCell>
        <mxCell id="HhktTSfvLPOtkTjDQFd3-67" value="Receive" style="strokeColor=#FF0000;" vertex="1" parent="4">
          <mxGeometry x="80" y="103" width="110" height="50" as="geometry" />
        </mxCell>
        <mxCell id="20" value="" style="endArrow=open;strokeColor=#FF0000;endFill=1;rounded=0;exitX=1;exitY=0.5;exitDx=0;exitDy=0;entryX=0;entryY=0.5;entryDx=0;entryDy=0;" parent="1" source="HhktTSfvLPOtkTjDQFd3-47" target="HhktTSfvLPOtkTjDQFd3-54" edge="1">
          <mxGeometry relative="1" as="geometry">
            <mxPoint x="493.85567010309273" y="503" as="targetPoint" />
            <Array as="points">
              <mxPoint x="420" y="575" />
              <mxPoint x="520" y="260" />
            </Array>
          </mxGeometry>
        </mxCell>
        <mxCell id="HhktTSfvLPOtkTjDQFd3-41" value="Consumer" style="swimlane;whiteSpace=wrap" vertex="1" parent="1">
          <mxGeometry x="1000" y="130" width="280" height="570" as="geometry" />
        </mxCell>
        <mxCell id="HhktTSfvLPOtkTjDQFd3-69" value="Purchase" style="strokeColor=#FF0000;" vertex="1" parent="HhktTSfvLPOtkTjDQFd3-41">
          <mxGeometry x="59" y="108" width="110" height="50" as="geometry" />
        </mxCell>
        <mxCell id="HhktTSfvLPOtkTjDQFd3-68" style="edgeStyle=orthogonalEdgeStyle;rounded=0;orthogonalLoop=1;jettySize=auto;html=1;entryX=0;entryY=0.5;entryDx=0;entryDy=0;strokeColor=#FF0000;" edge="1" parent="1" source="HhktTSfvLPOtkTjDQFd3-65" target="HhktTSfvLPOtkTjDQFd3-67">
          <mxGeometry relative="1" as="geometry" />
        </mxCell>
        <mxCell id="HhktTSfvLPOtkTjDQFd3-70" style="edgeStyle=orthogonalEdgeStyle;rounded=0;orthogonalLoop=1;jettySize=auto;html=1;strokeColor=#FF0000;" edge="1" parent="1" source="HhktTSfvLPOtkTjDQFd3-67" target="HhktTSfvLPOtkTjDQFd3-69">
          <mxGeometry relative="1" as="geometry" />
        </mxCell>
      </root>
    </mxGraphModel>
  </diagram>
</mxfile>
